<svg width="170" height="34" viewBox="0 0 170 34" fill="none" xmlns="http://www.w3.org/2000/svg">
<rect width="34" height="34" rx="17" fill="black"/>
<path d="M23.4583 8.66669H10.5417C9.50834 8.66669 8.66667 9.50835 8.66667 10.5417V23.4584C8.66667 24.4917 9.50834 25.3334 10.5417 25.3334H23.4583C24.4917 25.3334 25.3333 24.4917 25.3333 23.4584V10.5417C25.3333 9.50835 24.4917 8.66669 23.4583 8.66669ZM10.5417 9.91669H23.4583C23.8025 9.91669 24.0833 10.1975 24.0833 10.5417V18.605L20.8683 15.39C20.7517 15.2734 20.5933 15.2067 20.4267 15.2067H20.4242C20.2575 15.2067 20.0967 15.2734 19.9808 15.3934L16.3833 19.0467L14.8725 17.5417C14.7558 17.425 14.5975 17.3584 14.4308 17.3584C14.27 17.3334 14.1017 17.425 13.985 17.5475L9.91667 21.7017V10.5417C9.91667 10.1975 10.1975 9.91669 10.5417 9.91669ZM9.92167 23.4834L14.4367 18.8717L19.6717 24.0834H10.5417C10.2067 24.0834 9.93584 23.815 9.92167 23.4834ZM23.4583 24.0834H21.4417L17.2692 19.9275L20.4292 16.7192L24.0833 20.3725V23.4584C24.0833 23.8025 23.8025 24.0834 23.4583 24.0834Z" fill="#1D9BF0"/>
<path d="M14.39 15.2092C15.0997 15.2092 15.675 14.6338 15.675 13.9242C15.675 13.2145 15.0997 12.6392 14.39 12.6392C13.6803 12.6392 13.105 13.2145 13.105 13.9242C13.105 14.6338 13.6803 15.2092 14.39 15.2092Z" fill="#1D9BF0"/>
<rect x="34" width="34" height="34" rx="17" fill="black"/>
<path d="M56.8333 15.75V14.3334H53.1667V19.6667H54.5833V18H56.25V16.5834H54.5833V15.75H56.8333ZM50.75 14.3334H52.1667V19.6667H50.75V14.3334ZM47.75 15.6667C48.0833 15.6667 48.5 15.8334 48.75 16.0834L49.75 15.25C49.25 14.6667 48.5 14.3334 47.75 14.3334C46.25 14.3334 45.0833 15.5 45.0833 17C45.0833 18.5 46.25 19.6667 47.75 19.6667C48.5833 19.6667 49.25 19.3334 49.75 18.75V16.6667H47.4167V17.6667H48.4167V18.1667C48.25 18.25 48 18.3334 47.75 18.3334C47 18.3334 46.4167 17.75 46.4167 17C46.4167 16.3334 47 15.6667 47.75 15.6667Z" fill="#1D9BF0"/>
<path d="M58.0833 8.68335H43.9167C42.8833 8.68335 42.0417 9.52252 42.0417 10.5558V23.4783C42.0417 24.51 42.8833 25.35 43.9167 25.35H58.0833C59.1167 25.35 59.9583 24.51 59.9583 23.4783V10.5558C59.9583 9.52252 59.1167 8.68335 58.0833 8.68335ZM58.7083 23.4783C58.7083 23.82 58.4283 24.1 58.0833 24.1H43.9167C43.5717 24.1 43.2917 23.82 43.2917 23.4783V10.5558C43.2917 10.2125 43.5717 9.93335 43.9167 9.93335H58.0833C58.4283 9.93335 58.7083 10.2125 58.7083 10.5558V23.4783Z" fill="#1D9BF0"/>
<rect x="68" width="34" height="34" rx="17" fill="black"/>
<path d="M91.8517 14.6333H90.74C90.7525 14.5583 90.7633 14.4817 90.7633 14.4025V12.475C90.7633 11.6583 90.0992 10.9942 89.2817 10.9942H77.9167V9.79834C77.9167 9.45334 77.6367 9.17334 77.2917 9.17334C76.9467 9.17334 76.6667 9.45334 76.6667 9.79834V24.3583C76.6667 24.7042 76.9467 24.9833 77.2917 24.9833C77.6367 24.9833 77.9167 24.7042 77.9167 24.3583V23.1633H86.7133C87.53 23.1633 88.195 22.4992 88.195 21.6825V19.755C88.195 19.6758 88.1833 19.5992 88.1717 19.5233H91.8525C92.6692 19.5233 93.3342 18.8583 93.3342 18.0417V16.1167C93.3342 15.2975 92.67 14.6333 91.8525 14.6333H91.8517ZM89.2833 12.2442C89.41 12.2442 89.5142 12.3475 89.5142 12.475V14.4C89.5142 14.5283 89.41 14.6333 89.2825 14.6333H77.9167V12.2417H89.2833V12.2442ZM86.9442 19.7558V21.6825C86.9442 21.81 86.84 21.9133 86.7125 21.9133H77.9167V19.5233H86.7133C86.8408 19.5233 86.9442 19.6283 86.9442 19.7567V19.7558ZM92.0833 18.0417C92.0833 18.1692 91.9792 18.2725 91.8517 18.2725H77.9167V15.8833H91.8517C91.9792 15.8833 92.0833 15.9867 92.0833 16.1142V18.0417Z" fill="#1D9BF0"/>
<rect x="102" width="34" height="34" rx="17" fill="black"/>
<path d="M119 25.9584C114.06 25.9584 110.042 21.94 110.042 17C110.042 12.06 114.06 8.04169 119 8.04169C123.94 8.04169 127.958 12.06 127.958 17C127.958 21.94 123.94 25.9584 119 25.9584ZM119 9.29169C114.75 9.29169 111.292 12.75 111.292 17C111.292 21.25 114.75 24.7084 119 24.7084C123.25 24.7084 126.708 21.25 126.708 17C126.708 12.75 123.25 9.29169 119 9.29169Z" fill="#1D9BF0"/>
<path d="M119 21.2625C117.423 21.2625 115.972 20.4709 115.12 19.1425C114.933 18.8525 115.018 18.4675 115.308 18.28C115.598 18.0917 115.985 18.1767 116.172 18.4684C116.794 19.4367 117.852 20.0142 119.001 20.0142C120.15 20.0142 121.207 19.4367 121.831 18.4692C122.018 18.1775 122.404 18.0942 122.694 18.2817C122.986 18.4684 123.069 18.855 122.883 19.145C122.028 20.4734 120.578 21.2659 119.001 21.2659L119 21.2625Z" fill="#1D9BF0"/>
<path d="M121.282 16.1134C121.962 16.1134 122.513 15.5619 122.513 14.8817C122.513 14.2015 121.962 13.65 121.282 13.65C120.601 13.65 120.05 14.2015 120.05 14.8817C120.05 15.5619 120.601 16.1134 121.282 16.1134Z" fill="#1D9BF0"/>
<path d="M116.718 16.1134C117.399 16.1134 117.95 15.5619 117.95 14.8817C117.95 14.2015 117.399 13.65 116.718 13.65C116.038 13.65 115.487 14.2015 115.487 14.8817C115.487 15.5619 116.038 16.1134 116.718 16.1134Z" fill="#1D9BF0"/>
<rect x="136" width="34" height="34" rx="17" fill="black"/>
<g clip-path="url(#clip0_102_296)">
<path d="M111.417 22C111.333 21.9167 111.333 21.9167 111.333 21.8334C111.417 21.8334 111.417 21.9167 111.417 22ZM158 8.83335H156.917V8.58335C156.917 8.25002 156.667 7.91669 156.25 7.91669C155.917 7.91669 155.583 8.16669 155.583 8.58335V8.83335H149.417V8.58335C149.417 8.25002 149.167 7.91669 148.75 7.91669C148.417 7.91669 148.083 8.16669 148.083 8.58335V8.83335H147C145.833 8.83335 144.917 9.75002 144.917 10.9167V21.8334C144.917 23 145.833 23.9167 147 23.9167H149.417C149.75 23.9167 150.083 23.6667 150.083 23.25C150.083 22.9167 149.833 22.5834 149.417 22.5834H147C146.5 22.5834 146.167 22.1667 146.167 21.75V13.5834C146.167 13.3334 146.5 13 147 13H158C158.5 13 158.833 13.3334 158.833 13.5834V15.0834C158.833 15.4167 159.083 15.75 159.5 15.75C159.833 15.75 160.167 15.5 160.167 15.0834V10.9167C160.083 9.75002 159.167 8.83335 158 8.83335ZM158.833 11.9167C158.583 11.8334 158.25 11.75 158 11.75H147C146.667 11.75 146.417 11.8334 146.167 11.9167V10.9167C146.167 10.4167 146.583 10.0834 147 10.0834H148.083V10.5C148.083 10.8334 148.333 11.1667 148.75 11.1667C149.083 11.1667 149.417 10.9167 149.417 10.5V10.0834H155.667V10.5C155.667 10.8334 155.917 11.1667 156.333 11.1667C156.667 11.1667 157 10.9167 157 10.5V10.0834H158C158.5 10.0834 158.833 10.5 158.833 10.9167V11.9167Z" fill="#1D9BF0"/>
<path d="M155.917 15.6667C153.083 15.6667 150.75 18 150.75 20.8334C150.75 23.6667 153.083 26 155.917 26C158.75 26 161.083 23.6667 161.083 20.8334C161.083 18 158.75 15.6667 155.917 15.6667ZM155.917 24.8334C153.75 24.8334 152 23.0834 152 20.9167C152 18.75 153.75 17 155.917 17C158.083 17 159.833 18.75 159.833 20.9167C159.833 23 158.083 24.8334 155.917 24.8334Z" fill="#1D9BF0"/>
<path d="M158.75 22.5833C158.667 22.75 158.417 22.9167 158.25 22.9167C158.167 22.9167 158 22.9167 157.917 22.8333L155.333 21.1667V18.6667C155.333 18.3333 155.583 18 156 18C156.333 18 156.667 18.25 156.667 18.6667V20.5L158.667 21.75C158.833 21.9167 158.917 22.25 158.75 22.5833Z" fill="#1D9BF0"/>
</g>
<defs>
<clipPath id="clip0_102_296">
<rect width="20" height="20" fill="white" transform="translate(143 7)"/>
</clipPath>
</defs>
</svg>
