<svg width="24" height="24" viewBox="0 0 24 24" fill="none" xmlns="http://www.w3.org/2000/svg">
<path d="M7.46999 6.47L2.46999 11.47C2.17699 11.763 2.17699 12.238 2.46999 12.53L7.46999 17.53C7.76299 17.824 8.23799 17.824 8.52999 17.53C8.82199 17.236 8.82399 16.763 8.52999 16.47L4.80999 12.75H15C15.414 12.75 15.75 12.414 15.75 12C15.75 11.586 15.414 11.25 15 11.25H4.80999L8.52999 7.53C8.67699 7.384 8.74999 7.192 8.74999 7C8.74999 6.808 8.67799 6.616 8.52999 6.47C8.23699 6.177 7.76299 6.177 7.46999 6.47V6.47Z" fill="#D9D9D9"/>
</svg>
