<svg width="24" height="18" viewBox="0 0 24 18" fill="none" xmlns="http://www.w3.org/2000/svg">
<path d="M23.77 12.67C23.478 12.377 23.003 12.377 22.71 12.67L20.49 14.89V4.65C20.49 2.582 18.807 0.899998 16.74 0.899998H10.89C10.476 0.899998 10.14 1.236 10.14 1.65C10.14 2.064 10.476 2.4 10.89 2.4H16.74C17.98 2.4 18.99 3.41 18.99 4.65V14.89L16.77 12.67C16.477 12.377 16.002 12.377 15.71 12.67C15.418 12.963 15.416 13.438 15.71 13.73L19.21 17.23C19.355 17.377 19.547 17.45 19.74 17.45C19.933 17.45 20.123 17.378 20.27 17.23L23.77 13.73C24.064 13.438 24.064 12.963 23.77 12.67ZM13.11 15.95H7.25997C6.01997 15.95 5.00997 14.94 5.00997 13.7V3.46L7.22997 5.68C7.37797 5.827 7.56997 5.9 7.76197 5.9C7.95397 5.9 8.14597 5.827 8.29197 5.68C8.58497 5.387 8.58497 4.912 8.29197 4.62L4.79197 1.12C4.49897 0.825998 4.02397 0.825998 3.73197 1.12L0.231975 4.62C-0.0620254 4.912 -0.0620254 5.387 0.231975 5.68C0.525975 5.973 0.998975 5.973 1.29197 5.68L3.51197 3.46V13.7C3.51197 15.768 5.19497 17.45 7.26197 17.45H13.112C13.526 17.45 13.862 17.114 13.862 16.7C13.862 16.286 13.525 15.95 13.112 15.95H13.11Z" fill="#D9D9D9"/>
</svg>
