<svg width="20" height="18" viewBox="0 0 20 18" fill="none" xmlns="http://www.w3.org/2000/svg">
<path d="M18.9767 7.75498L14.295 5.92831L12.495 0.511646C12.41 0.255813 12.17 0.083313 11.9017 0.083313C11.6333 0.083313 11.3933 0.255813 11.3083 0.510813L9.50833 5.92748L4.825 7.75415C4.58583 7.84748 4.4275 8.07915 4.4275 8.33748C4.4275 8.59581 4.58583 8.82498 4.82583 8.91915L9.50917 10.7458L11.3092 16.1625C11.3942 16.4175 11.6342 16.59 11.9025 16.59C12.1708 16.59 12.4108 16.4175 12.4958 16.1625L14.2958 10.7458L18.9792 8.91915C19.2183 8.82581 19.3767 8.59415 19.3767 8.33581C19.3767 8.07748 19.2183 7.84831 18.9783 7.75498H18.9767ZM13.5683 9.68831C13.395 9.75498 13.26 9.89665 13.2017 10.0716L11.9017 13.9841L10.6017 10.0733C10.5433 9.89831 10.41 9.75665 10.2367 9.68831L6.77417 8.33831L10.2358 6.98665C10.4092 6.91998 10.5442 6.77831 10.6025 6.60165L11.9025 2.69081L13.2025 6.60248C13.2608 6.77915 13.3942 6.92081 13.5675 6.98831L17.03 8.33831L13.5675 9.68998L13.5683 9.68831ZM5.5525 2.17665H3.98583V0.708313C3.98583 0.363313 3.705 0.083313 3.36083 0.083313C3.01667 0.083313 2.73583 0.363313 2.73583 0.708313V2.17665H1.25C0.905 2.17665 0.625 2.45665 0.625 2.80165C0.625 3.14665 0.905 3.42665 1.25 3.42665H2.735V4.89498C2.735 5.23998 3.015 5.51998 3.36 5.51998C3.705 5.51998 3.985 5.23998 3.985 4.89498V3.42665H5.55167C5.8975 3.42665 6.17667 3.14665 6.17667 2.80165C6.17667 2.45665 5.8975 2.17665 5.55167 2.17665H5.5525ZM7.665 15.195H6.74833V14.3483C6.74833 14.0033 6.46917 13.7233 6.12333 13.7233C5.7775 13.7233 5.49833 14.0033 5.49833 14.3483V15.195H4.64167C4.29667 15.195 4.01667 15.475 4.01667 15.82C4.01667 16.165 4.29667 16.445 4.64167 16.445H5.5V17.2916C5.5 17.6366 5.77917 17.9166 6.125 17.9166C6.47083 17.9166 6.75 17.6366 6.75 17.2916V16.445H7.665C8.01 16.445 8.29 16.165 8.29 15.82C8.29 15.475 8.01 15.195 7.665 15.195V15.195Z" fill="#D9D9D9"/>
</svg>
